<svg width="18" height="19" viewBox="0 0 18 19" fill="none" xmlns="http://www.w3.org/2000/svg">
<path d="M5 17.0954H3C1.89543 17.0954 1 16.1999 1 15.0954V3C1 1.89543 1.89543 1 3 1H6M5 17.0954V11.0536C5 10.5014 5.44772 10.0536 6 10.0536H12C12.5523 10.0536 13 10.5014 13 11.0536V17.0954M5 17.0954H13M13 17.0954H15C16.1046 17.0954 17 16.1999 17 15.0954V5.84879C17 5.32041 16.7909 4.81351 16.4184 4.43878L13.5865 1.58999C13.2111 1.21235 12.7006 1 12.1681 1H12M12 1V4.02384C12 4.57612 11.5523 5.02384 11 5.02384H7C6.44772 5.02384 6 4.57612 6 4.02384V1M12 1H6" stroke="white" stroke-width="2" stroke-linecap="round" stroke-linejoin="round"/>
</svg>
